<mxfile host="app.diagrams.net" modified="2022-07-03T07:03:52.175Z" agent="5.0 (Windows NT 10.0; Win64; x64) AppleWebKit/537.36 (KHTML, like Gecko) Chrome/103.0.0.0 Safari/537.36" etag="EZ8XYjhfOCStur_erDvJ" version="20.0.4" type="github">
  <diagram id="EODv_GWRiQXyj2ivLvyR" name="Page-1">
    <mxGraphModel dx="2062" dy="1137" grid="1" gridSize="10" guides="1" tooltips="1" connect="1" arrows="1" fold="1" page="1" pageScale="1" pageWidth="850" pageHeight="1100" math="0" shadow="0">
      <root>
        <mxCell id="0" />
        <mxCell id="1" parent="0" />
        <mxCell id="AnZsFcttlPKRZk0aTAW--26" value="" style="rounded=1;whiteSpace=wrap;html=1;fillColor=#b1ddf0;strokeColor=#10739e;" vertex="1" parent="1">
          <mxGeometry x="700" y="366.25" width="110" height="80" as="geometry" />
        </mxCell>
        <mxCell id="AnZsFcttlPKRZk0aTAW--6" style="rounded=0;orthogonalLoop=1;jettySize=auto;html=1;exitX=0;exitY=1;exitDx=0;exitDy=0;entryX=1;entryY=0;entryDx=0;entryDy=0;endArrow=none;endFill=0;" edge="1" parent="1" source="AnZsFcttlPKRZk0aTAW--1" target="AnZsFcttlPKRZk0aTAW--2">
          <mxGeometry relative="1" as="geometry" />
        </mxCell>
        <mxCell id="AnZsFcttlPKRZk0aTAW--7" style="edgeStyle=none;rounded=0;orthogonalLoop=1;jettySize=auto;html=1;exitX=1;exitY=1;exitDx=0;exitDy=0;entryX=0;entryY=0;entryDx=0;entryDy=0;endArrow=none;endFill=0;" edge="1" parent="1" source="AnZsFcttlPKRZk0aTAW--1" target="AnZsFcttlPKRZk0aTAW--3">
          <mxGeometry relative="1" as="geometry" />
        </mxCell>
        <mxCell id="AnZsFcttlPKRZk0aTAW--9" style="edgeStyle=none;rounded=0;orthogonalLoop=1;jettySize=auto;html=1;exitX=0.5;exitY=1;exitDx=0;exitDy=0;entryX=0.5;entryY=0;entryDx=0;entryDy=0;endArrow=none;endFill=0;" edge="1" parent="1" source="AnZsFcttlPKRZk0aTAW--1" target="AnZsFcttlPKRZk0aTAW--5">
          <mxGeometry relative="1" as="geometry" />
        </mxCell>
        <mxCell id="AnZsFcttlPKRZk0aTAW--1" value="R0" style="ellipse;whiteSpace=wrap;html=1;aspect=fixed;fillColor=#bac8d3;strokeColor=#23445d;" vertex="1" parent="1">
          <mxGeometry x="90" y="260" width="50" height="50" as="geometry" />
        </mxCell>
        <mxCell id="AnZsFcttlPKRZk0aTAW--12" style="edgeStyle=none;rounded=0;orthogonalLoop=1;jettySize=auto;html=1;exitX=1;exitY=1;exitDx=0;exitDy=0;endArrow=none;endFill=0;" edge="1" parent="1" source="AnZsFcttlPKRZk0aTAW--2" target="AnZsFcttlPKRZk0aTAW--4">
          <mxGeometry relative="1" as="geometry" />
        </mxCell>
        <mxCell id="AnZsFcttlPKRZk0aTAW--2" value="R1" style="ellipse;whiteSpace=wrap;html=1;aspect=fixed;fillColor=#bac8d3;strokeColor=#23445d;" vertex="1" parent="1">
          <mxGeometry x="10" y="340" width="50" height="50" as="geometry" />
        </mxCell>
        <mxCell id="AnZsFcttlPKRZk0aTAW--8" style="edgeStyle=none;rounded=0;orthogonalLoop=1;jettySize=auto;html=1;exitX=0;exitY=1;exitDx=0;exitDy=0;entryX=1;entryY=0;entryDx=0;entryDy=0;endArrow=none;endFill=0;" edge="1" parent="1" source="AnZsFcttlPKRZk0aTAW--3" target="AnZsFcttlPKRZk0aTAW--4">
          <mxGeometry relative="1" as="geometry" />
        </mxCell>
        <mxCell id="AnZsFcttlPKRZk0aTAW--13" style="edgeStyle=none;rounded=0;orthogonalLoop=1;jettySize=auto;html=1;exitX=0;exitY=0.5;exitDx=0;exitDy=0;entryX=1;entryY=0.5;entryDx=0;entryDy=0;endArrow=none;endFill=0;" edge="1" parent="1" source="AnZsFcttlPKRZk0aTAW--3" target="AnZsFcttlPKRZk0aTAW--5">
          <mxGeometry relative="1" as="geometry" />
        </mxCell>
        <mxCell id="AnZsFcttlPKRZk0aTAW--3" value="R3" style="ellipse;whiteSpace=wrap;html=1;aspect=fixed;fillColor=#bac8d3;strokeColor=#23445d;" vertex="1" parent="1">
          <mxGeometry x="170" y="340" width="50" height="50" as="geometry" />
        </mxCell>
        <mxCell id="AnZsFcttlPKRZk0aTAW--10" style="edgeStyle=none;rounded=0;orthogonalLoop=1;jettySize=auto;html=1;exitX=0.5;exitY=0;exitDx=0;exitDy=0;entryX=0.5;entryY=1;entryDx=0;entryDy=0;endArrow=none;endFill=0;" edge="1" parent="1" source="AnZsFcttlPKRZk0aTAW--4" target="AnZsFcttlPKRZk0aTAW--5">
          <mxGeometry relative="1" as="geometry" />
        </mxCell>
        <mxCell id="AnZsFcttlPKRZk0aTAW--4" value="R4" style="ellipse;whiteSpace=wrap;html=1;aspect=fixed;fillColor=#fad9d5;strokeColor=#ae4132;" vertex="1" parent="1">
          <mxGeometry x="90" y="420" width="50" height="50" as="geometry" />
        </mxCell>
        <mxCell id="AnZsFcttlPKRZk0aTAW--5" value="R2" style="ellipse;whiteSpace=wrap;html=1;aspect=fixed;fillColor=#bac8d3;strokeColor=#23445d;" vertex="1" parent="1">
          <mxGeometry x="90" y="340" width="50" height="50" as="geometry" />
        </mxCell>
        <mxCell id="AnZsFcttlPKRZk0aTAW--14" style="rounded=0;orthogonalLoop=1;jettySize=auto;html=1;exitX=0;exitY=1;exitDx=0;exitDy=0;entryX=1;entryY=0;entryDx=0;entryDy=0;endArrow=none;endFill=0;" edge="1" parent="1" source="AnZsFcttlPKRZk0aTAW--17" target="AnZsFcttlPKRZk0aTAW--19">
          <mxGeometry relative="1" as="geometry" />
        </mxCell>
        <mxCell id="AnZsFcttlPKRZk0aTAW--15" style="edgeStyle=none;rounded=0;orthogonalLoop=1;jettySize=auto;html=1;exitX=1;exitY=1;exitDx=0;exitDy=0;entryX=0;entryY=0;entryDx=0;entryDy=0;endArrow=none;endFill=0;" edge="1" parent="1" source="AnZsFcttlPKRZk0aTAW--17" target="AnZsFcttlPKRZk0aTAW--22">
          <mxGeometry relative="1" as="geometry" />
        </mxCell>
        <mxCell id="AnZsFcttlPKRZk0aTAW--16" style="edgeStyle=none;rounded=0;orthogonalLoop=1;jettySize=auto;html=1;exitX=0.5;exitY=1;exitDx=0;exitDy=0;entryX=0.5;entryY=0;entryDx=0;entryDy=0;endArrow=none;endFill=0;" edge="1" parent="1" source="AnZsFcttlPKRZk0aTAW--17" target="AnZsFcttlPKRZk0aTAW--25">
          <mxGeometry relative="1" as="geometry" />
        </mxCell>
        <mxCell id="AnZsFcttlPKRZk0aTAW--17" value="R0" style="ellipse;whiteSpace=wrap;html=1;aspect=fixed;fillColor=#bac8d3;strokeColor=#23445d;" vertex="1" parent="1">
          <mxGeometry x="730" y="221.25" width="50" height="50" as="geometry" />
        </mxCell>
        <mxCell id="AnZsFcttlPKRZk0aTAW--18" style="edgeStyle=none;rounded=0;orthogonalLoop=1;jettySize=auto;html=1;exitX=1;exitY=1;exitDx=0;exitDy=0;endArrow=none;endFill=0;" edge="1" parent="1" source="AnZsFcttlPKRZk0aTAW--19" target="AnZsFcttlPKRZk0aTAW--24">
          <mxGeometry relative="1" as="geometry" />
        </mxCell>
        <mxCell id="AnZsFcttlPKRZk0aTAW--19" value="R1" style="ellipse;whiteSpace=wrap;html=1;aspect=fixed;fillColor=#bac8d3;strokeColor=#23445d;" vertex="1" parent="1">
          <mxGeometry x="650" y="301.25" width="50" height="50" as="geometry" />
        </mxCell>
        <mxCell id="AnZsFcttlPKRZk0aTAW--20" style="edgeStyle=none;rounded=0;orthogonalLoop=1;jettySize=auto;html=1;exitX=0;exitY=1;exitDx=0;exitDy=0;entryX=1;entryY=0;entryDx=0;entryDy=0;endArrow=none;endFill=0;strokeWidth=6;fillColor=#b0e3e6;strokeColor=#330000;" edge="1" parent="1" source="AnZsFcttlPKRZk0aTAW--22" target="AnZsFcttlPKRZk0aTAW--24">
          <mxGeometry relative="1" as="geometry" />
        </mxCell>
        <mxCell id="AnZsFcttlPKRZk0aTAW--21" style="edgeStyle=none;rounded=0;orthogonalLoop=1;jettySize=auto;html=1;exitX=0;exitY=0.5;exitDx=0;exitDy=0;entryX=1;entryY=0.5;entryDx=0;entryDy=0;endArrow=none;endFill=0;" edge="1" parent="1" source="AnZsFcttlPKRZk0aTAW--22" target="AnZsFcttlPKRZk0aTAW--25">
          <mxGeometry relative="1" as="geometry" />
        </mxCell>
        <mxCell id="AnZsFcttlPKRZk0aTAW--22" value="R3" style="ellipse;whiteSpace=wrap;html=1;aspect=fixed;fillColor=#fad9d5;strokeColor=#ae4132;" vertex="1" parent="1">
          <mxGeometry x="810" y="301.25" width="50" height="50" as="geometry" />
        </mxCell>
        <mxCell id="AnZsFcttlPKRZk0aTAW--23" style="edgeStyle=none;rounded=0;orthogonalLoop=1;jettySize=auto;html=1;exitX=0.5;exitY=0;exitDx=0;exitDy=0;entryX=0.5;entryY=1;entryDx=0;entryDy=0;endArrow=none;endFill=0;" edge="1" parent="1" source="AnZsFcttlPKRZk0aTAW--24" target="AnZsFcttlPKRZk0aTAW--25">
          <mxGeometry relative="1" as="geometry" />
        </mxCell>
        <mxCell id="AnZsFcttlPKRZk0aTAW--24" value="R4" style="ellipse;whiteSpace=wrap;html=1;aspect=fixed;fillColor=#fad7ac;strokeColor=#b46504;" vertex="1" parent="1">
          <mxGeometry x="730" y="381.25" width="50" height="50" as="geometry" />
        </mxCell>
        <mxCell id="AnZsFcttlPKRZk0aTAW--25" value="R2" style="ellipse;whiteSpace=wrap;html=1;aspect=fixed;fillColor=#bac8d3;strokeColor=#23445d;" vertex="1" parent="1">
          <mxGeometry x="730" y="301.25" width="50" height="50" as="geometry" />
        </mxCell>
        <mxCell id="AnZsFcttlPKRZk0aTAW--27" value="" style="rounded=1;whiteSpace=wrap;html=1;fillColor=#b1ddf0;strokeColor=#10739e;rotation=-45;" vertex="1" parent="1">
          <mxGeometry x="334.36" y="924.98" width="180" height="64.75" as="geometry" />
        </mxCell>
        <mxCell id="AnZsFcttlPKRZk0aTAW--28" style="rounded=0;orthogonalLoop=1;jettySize=auto;html=1;exitX=0;exitY=1;exitDx=0;exitDy=0;entryX=1;entryY=0;entryDx=0;entryDy=0;endArrow=none;endFill=0;" edge="1" parent="1" source="AnZsFcttlPKRZk0aTAW--31" target="AnZsFcttlPKRZk0aTAW--33">
          <mxGeometry relative="1" as="geometry" />
        </mxCell>
        <mxCell id="AnZsFcttlPKRZk0aTAW--29" style="edgeStyle=none;rounded=0;orthogonalLoop=1;jettySize=auto;html=1;exitX=1;exitY=1;exitDx=0;exitDy=0;entryX=0;entryY=0;entryDx=0;entryDy=0;endArrow=none;endFill=0;" edge="1" parent="1" source="AnZsFcttlPKRZk0aTAW--31" target="AnZsFcttlPKRZk0aTAW--36">
          <mxGeometry relative="1" as="geometry" />
        </mxCell>
        <mxCell id="AnZsFcttlPKRZk0aTAW--30" style="edgeStyle=none;rounded=0;orthogonalLoop=1;jettySize=auto;html=1;exitX=0.5;exitY=1;exitDx=0;exitDy=0;entryX=0.5;entryY=0;entryDx=0;entryDy=0;endArrow=none;endFill=0;" edge="1" parent="1" source="AnZsFcttlPKRZk0aTAW--31" target="AnZsFcttlPKRZk0aTAW--39">
          <mxGeometry relative="1" as="geometry" />
        </mxCell>
        <mxCell id="AnZsFcttlPKRZk0aTAW--31" value="R0" style="ellipse;whiteSpace=wrap;html=1;aspect=fixed;fillColor=#bac8d3;strokeColor=#23445d;" vertex="1" parent="1">
          <mxGeometry x="360" y="810" width="50" height="50" as="geometry" />
        </mxCell>
        <mxCell id="AnZsFcttlPKRZk0aTAW--32" style="edgeStyle=none;rounded=0;orthogonalLoop=1;jettySize=auto;html=1;exitX=1;exitY=1;exitDx=0;exitDy=0;endArrow=none;endFill=0;" edge="1" parent="1" source="AnZsFcttlPKRZk0aTAW--33" target="AnZsFcttlPKRZk0aTAW--38">
          <mxGeometry relative="1" as="geometry" />
        </mxCell>
        <mxCell id="AnZsFcttlPKRZk0aTAW--33" value="R1" style="ellipse;whiteSpace=wrap;html=1;aspect=fixed;fillColor=#bac8d3;strokeColor=#23445d;" vertex="1" parent="1">
          <mxGeometry x="280" y="890" width="50" height="50" as="geometry" />
        </mxCell>
        <mxCell id="AnZsFcttlPKRZk0aTAW--34" style="edgeStyle=none;rounded=0;orthogonalLoop=1;jettySize=auto;html=1;exitX=0;exitY=1;exitDx=0;exitDy=0;entryX=1;entryY=0;entryDx=0;entryDy=0;endArrow=none;endFill=0;" edge="1" parent="1" source="AnZsFcttlPKRZk0aTAW--36" target="AnZsFcttlPKRZk0aTAW--38">
          <mxGeometry relative="1" as="geometry" />
        </mxCell>
        <mxCell id="AnZsFcttlPKRZk0aTAW--35" style="edgeStyle=none;rounded=0;orthogonalLoop=1;jettySize=auto;html=1;exitX=0;exitY=0.5;exitDx=0;exitDy=0;entryX=1;entryY=0.5;entryDx=0;entryDy=0;endArrow=none;endFill=0;" edge="1" parent="1" source="AnZsFcttlPKRZk0aTAW--36" target="AnZsFcttlPKRZk0aTAW--39">
          <mxGeometry relative="1" as="geometry" />
        </mxCell>
        <mxCell id="AnZsFcttlPKRZk0aTAW--36" value="R3" style="ellipse;whiteSpace=wrap;html=1;aspect=fixed;fillColor=#fad7ac;strokeColor=#b46504;" vertex="1" parent="1">
          <mxGeometry x="440" y="890" width="50" height="50" as="geometry" />
        </mxCell>
        <mxCell id="AnZsFcttlPKRZk0aTAW--37" style="edgeStyle=none;rounded=0;orthogonalLoop=1;jettySize=auto;html=1;exitX=0.5;exitY=0;exitDx=0;exitDy=0;entryX=0.5;entryY=1;entryDx=0;entryDy=0;endArrow=none;endFill=0;" edge="1" parent="1" source="AnZsFcttlPKRZk0aTAW--38" target="AnZsFcttlPKRZk0aTAW--39">
          <mxGeometry relative="1" as="geometry" />
        </mxCell>
        <mxCell id="AnZsFcttlPKRZk0aTAW--38" value="R4" style="ellipse;whiteSpace=wrap;html=1;aspect=fixed;fillColor=#fad7ac;strokeColor=#b46504;" vertex="1" parent="1">
          <mxGeometry x="360" y="970" width="50" height="50" as="geometry" />
        </mxCell>
        <mxCell id="AnZsFcttlPKRZk0aTAW--39" value="R2" style="ellipse;whiteSpace=wrap;html=1;aspect=fixed;fillColor=#fad9d5;strokeColor=#ae4132;" vertex="1" parent="1">
          <mxGeometry x="360" y="890" width="50" height="50" as="geometry" />
        </mxCell>
        <mxCell id="AnZsFcttlPKRZk0aTAW--40" value="" style="rounded=1;whiteSpace=wrap;html=1;fillColor=#b1ddf0;strokeColor=#10739e;rotation=-45;" vertex="1" parent="1">
          <mxGeometry x="1374.92" y="345.55" width="180" height="119.73" as="geometry" />
        </mxCell>
        <mxCell id="AnZsFcttlPKRZk0aTAW--41" style="rounded=0;orthogonalLoop=1;jettySize=auto;html=1;exitX=0;exitY=1;exitDx=0;exitDy=0;entryX=1;entryY=0;entryDx=0;entryDy=0;endArrow=none;endFill=0;" edge="1" parent="1" source="AnZsFcttlPKRZk0aTAW--44" target="AnZsFcttlPKRZk0aTAW--46">
          <mxGeometry relative="1" as="geometry" />
        </mxCell>
        <mxCell id="AnZsFcttlPKRZk0aTAW--42" style="edgeStyle=none;rounded=0;orthogonalLoop=1;jettySize=auto;html=1;exitX=1;exitY=1;exitDx=0;exitDy=0;entryX=0;entryY=0;entryDx=0;entryDy=0;endArrow=none;endFill=0;" edge="1" parent="1" source="AnZsFcttlPKRZk0aTAW--44" target="AnZsFcttlPKRZk0aTAW--49">
          <mxGeometry relative="1" as="geometry" />
        </mxCell>
        <mxCell id="AnZsFcttlPKRZk0aTAW--43" style="edgeStyle=none;rounded=0;orthogonalLoop=1;jettySize=auto;html=1;exitX=0.5;exitY=1;exitDx=0;exitDy=0;entryX=0.5;entryY=0;entryDx=0;entryDy=0;endArrow=none;endFill=0;" edge="1" parent="1" source="AnZsFcttlPKRZk0aTAW--44" target="AnZsFcttlPKRZk0aTAW--52">
          <mxGeometry relative="1" as="geometry" />
        </mxCell>
        <mxCell id="AnZsFcttlPKRZk0aTAW--44" value="R0" style="ellipse;whiteSpace=wrap;html=1;aspect=fixed;fillColor=#bac8d3;strokeColor=#23445d;" vertex="1" parent="1">
          <mxGeometry x="1420" y="277.5" width="50" height="50" as="geometry" />
        </mxCell>
        <mxCell id="AnZsFcttlPKRZk0aTAW--45" style="edgeStyle=none;rounded=0;orthogonalLoop=1;jettySize=auto;html=1;exitX=1;exitY=1;exitDx=0;exitDy=0;endArrow=none;endFill=0;" edge="1" parent="1" source="AnZsFcttlPKRZk0aTAW--46" target="AnZsFcttlPKRZk0aTAW--51">
          <mxGeometry relative="1" as="geometry" />
        </mxCell>
        <mxCell id="AnZsFcttlPKRZk0aTAW--46" value="R1" style="ellipse;whiteSpace=wrap;html=1;aspect=fixed;fillColor=#fad9d5;strokeColor=#ae4132;" vertex="1" parent="1">
          <mxGeometry x="1340" y="357.5" width="50" height="50" as="geometry" />
        </mxCell>
        <mxCell id="AnZsFcttlPKRZk0aTAW--47" style="edgeStyle=none;rounded=0;orthogonalLoop=1;jettySize=auto;html=1;exitX=0;exitY=1;exitDx=0;exitDy=0;entryX=1;entryY=0;entryDx=0;entryDy=0;endArrow=none;endFill=0;" edge="1" parent="1" source="AnZsFcttlPKRZk0aTAW--49" target="AnZsFcttlPKRZk0aTAW--51">
          <mxGeometry relative="1" as="geometry" />
        </mxCell>
        <mxCell id="AnZsFcttlPKRZk0aTAW--48" style="edgeStyle=none;rounded=0;orthogonalLoop=1;jettySize=auto;html=1;exitX=0;exitY=0.5;exitDx=0;exitDy=0;entryX=1;entryY=0.5;entryDx=0;entryDy=0;endArrow=none;endFill=0;" edge="1" parent="1" source="AnZsFcttlPKRZk0aTAW--49" target="AnZsFcttlPKRZk0aTAW--52">
          <mxGeometry relative="1" as="geometry" />
        </mxCell>
        <mxCell id="AnZsFcttlPKRZk0aTAW--49" value="R3" style="ellipse;whiteSpace=wrap;html=1;aspect=fixed;fillColor=#b1ddf0;strokeColor=#10739e;" vertex="1" parent="1">
          <mxGeometry x="1500" y="357.5" width="50" height="50" as="geometry" />
        </mxCell>
        <mxCell id="AnZsFcttlPKRZk0aTAW--50" style="edgeStyle=none;rounded=0;orthogonalLoop=1;jettySize=auto;html=1;exitX=0.5;exitY=0;exitDx=0;exitDy=0;entryX=0.5;entryY=1;entryDx=0;entryDy=0;endArrow=none;endFill=0;" edge="1" parent="1" source="AnZsFcttlPKRZk0aTAW--51" target="AnZsFcttlPKRZk0aTAW--52">
          <mxGeometry relative="1" as="geometry" />
        </mxCell>
        <mxCell id="AnZsFcttlPKRZk0aTAW--51" value="R4" style="ellipse;whiteSpace=wrap;html=1;aspect=fixed;fillColor=#fad7ac;strokeColor=#b46504;" vertex="1" parent="1">
          <mxGeometry x="1420" y="437.5" width="50" height="50" as="geometry" />
        </mxCell>
        <mxCell id="AnZsFcttlPKRZk0aTAW--52" value="R2" style="ellipse;whiteSpace=wrap;html=1;aspect=fixed;fillColor=#b1ddf0;strokeColor=#10739e;" vertex="1" parent="1">
          <mxGeometry x="1420" y="357.5" width="50" height="50" as="geometry" />
        </mxCell>
        <mxCell id="AnZsFcttlPKRZk0aTAW--66" value="" style="rounded=1;whiteSpace=wrap;html=1;fillColor=#b1ddf0;strokeColor=#10739e;" vertex="1" parent="1">
          <mxGeometry x="600" y="623.75" width="110" height="80" as="geometry" />
        </mxCell>
        <mxCell id="AnZsFcttlPKRZk0aTAW--67" style="rounded=0;orthogonalLoop=1;jettySize=auto;html=1;exitX=0;exitY=1;exitDx=0;exitDy=0;entryX=1;entryY=0;entryDx=0;entryDy=0;endArrow=none;endFill=0;" edge="1" parent="1" source="AnZsFcttlPKRZk0aTAW--70" target="AnZsFcttlPKRZk0aTAW--72">
          <mxGeometry relative="1" as="geometry" />
        </mxCell>
        <mxCell id="AnZsFcttlPKRZk0aTAW--68" style="edgeStyle=none;rounded=0;orthogonalLoop=1;jettySize=auto;html=1;exitX=1;exitY=1;exitDx=0;exitDy=0;entryX=0;entryY=0;entryDx=0;entryDy=0;endArrow=none;endFill=0;" edge="1" parent="1" source="AnZsFcttlPKRZk0aTAW--70" target="AnZsFcttlPKRZk0aTAW--75">
          <mxGeometry relative="1" as="geometry" />
        </mxCell>
        <mxCell id="AnZsFcttlPKRZk0aTAW--69" style="edgeStyle=none;rounded=0;orthogonalLoop=1;jettySize=auto;html=1;exitX=0.5;exitY=1;exitDx=0;exitDy=0;entryX=0.5;entryY=0;entryDx=0;entryDy=0;endArrow=none;endFill=0;" edge="1" parent="1" source="AnZsFcttlPKRZk0aTAW--70" target="AnZsFcttlPKRZk0aTAW--78">
          <mxGeometry relative="1" as="geometry" />
        </mxCell>
        <mxCell id="AnZsFcttlPKRZk0aTAW--70" value="R0" style="ellipse;whiteSpace=wrap;html=1;aspect=fixed;fillColor=#bac8d3;strokeColor=#23445d;" vertex="1" parent="1">
          <mxGeometry x="630" y="478.75" width="50" height="50" as="geometry" />
        </mxCell>
        <mxCell id="AnZsFcttlPKRZk0aTAW--71" style="edgeStyle=none;rounded=0;orthogonalLoop=1;jettySize=auto;html=1;exitX=1;exitY=1;exitDx=0;exitDy=0;endArrow=none;endFill=0;" edge="1" parent="1" source="AnZsFcttlPKRZk0aTAW--72" target="AnZsFcttlPKRZk0aTAW--77">
          <mxGeometry relative="1" as="geometry" />
        </mxCell>
        <mxCell id="AnZsFcttlPKRZk0aTAW--72" value="R1" style="ellipse;whiteSpace=wrap;html=1;aspect=fixed;fillColor=#bac8d3;strokeColor=#23445d;" vertex="1" parent="1">
          <mxGeometry x="550" y="558.75" width="50" height="50" as="geometry" />
        </mxCell>
        <mxCell id="AnZsFcttlPKRZk0aTAW--73" style="edgeStyle=none;rounded=0;orthogonalLoop=1;jettySize=auto;html=1;exitX=0;exitY=1;exitDx=0;exitDy=0;entryX=1;entryY=0;entryDx=0;entryDy=0;endArrow=none;endFill=0;strokeWidth=5;" edge="1" parent="1" source="AnZsFcttlPKRZk0aTAW--75" target="AnZsFcttlPKRZk0aTAW--77">
          <mxGeometry relative="1" as="geometry" />
        </mxCell>
        <mxCell id="AnZsFcttlPKRZk0aTAW--74" style="edgeStyle=none;rounded=0;orthogonalLoop=1;jettySize=auto;html=1;exitX=0;exitY=0.5;exitDx=0;exitDy=0;entryX=1;entryY=0.5;entryDx=0;entryDy=0;endArrow=none;endFill=0;" edge="1" parent="1" source="AnZsFcttlPKRZk0aTAW--75" target="AnZsFcttlPKRZk0aTAW--78">
          <mxGeometry relative="1" as="geometry" />
        </mxCell>
        <mxCell id="AnZsFcttlPKRZk0aTAW--75" value="R3" style="ellipse;whiteSpace=wrap;html=1;aspect=fixed;fillColor=#fad9d5;strokeColor=#ae4132;" vertex="1" parent="1">
          <mxGeometry x="710" y="558.75" width="50" height="50" as="geometry" />
        </mxCell>
        <mxCell id="AnZsFcttlPKRZk0aTAW--76" style="edgeStyle=none;rounded=0;orthogonalLoop=1;jettySize=auto;html=1;exitX=0.5;exitY=0;exitDx=0;exitDy=0;entryX=0.5;entryY=1;entryDx=0;entryDy=0;endArrow=none;endFill=0;" edge="1" parent="1" source="AnZsFcttlPKRZk0aTAW--77" target="AnZsFcttlPKRZk0aTAW--78">
          <mxGeometry relative="1" as="geometry" />
        </mxCell>
        <mxCell id="AnZsFcttlPKRZk0aTAW--77" value="R4" style="ellipse;whiteSpace=wrap;html=1;aspect=fixed;fillColor=#fad7ac;strokeColor=#b46504;dashed=1;" vertex="1" parent="1">
          <mxGeometry x="630" y="638.75" width="50" height="50" as="geometry" />
        </mxCell>
        <mxCell id="AnZsFcttlPKRZk0aTAW--78" value="R2" style="ellipse;whiteSpace=wrap;html=1;aspect=fixed;fillColor=#bac8d3;strokeColor=#23445d;" vertex="1" parent="1">
          <mxGeometry x="630" y="558.75" width="50" height="50" as="geometry" />
        </mxCell>
        <mxCell id="AnZsFcttlPKRZk0aTAW--92" value="" style="rounded=1;whiteSpace=wrap;html=1;fillColor=#b1ddf0;strokeColor=#10739e;rotation=-45;" vertex="1" parent="1">
          <mxGeometry x="830" y="1404.98" width="180" height="64.75" as="geometry" />
        </mxCell>
        <mxCell id="AnZsFcttlPKRZk0aTAW--93" style="rounded=0;orthogonalLoop=1;jettySize=auto;html=1;exitX=0;exitY=1;exitDx=0;exitDy=0;entryX=1;entryY=0;entryDx=0;entryDy=0;endArrow=none;endFill=0;" edge="1" parent="1" source="AnZsFcttlPKRZk0aTAW--96" target="AnZsFcttlPKRZk0aTAW--98">
          <mxGeometry relative="1" as="geometry" />
        </mxCell>
        <mxCell id="AnZsFcttlPKRZk0aTAW--94" style="edgeStyle=none;rounded=0;orthogonalLoop=1;jettySize=auto;html=1;exitX=1;exitY=1;exitDx=0;exitDy=0;entryX=0;entryY=0;entryDx=0;entryDy=0;endArrow=none;endFill=0;" edge="1" parent="1" source="AnZsFcttlPKRZk0aTAW--96" target="AnZsFcttlPKRZk0aTAW--101">
          <mxGeometry relative="1" as="geometry" />
        </mxCell>
        <mxCell id="AnZsFcttlPKRZk0aTAW--95" style="edgeStyle=none;rounded=0;orthogonalLoop=1;jettySize=auto;html=1;exitX=0.5;exitY=1;exitDx=0;exitDy=0;entryX=0.5;entryY=0;entryDx=0;entryDy=0;endArrow=none;endFill=0;" edge="1" parent="1" source="AnZsFcttlPKRZk0aTAW--96" target="AnZsFcttlPKRZk0aTAW--104">
          <mxGeometry relative="1" as="geometry" />
        </mxCell>
        <mxCell id="AnZsFcttlPKRZk0aTAW--96" value="R0" style="ellipse;whiteSpace=wrap;html=1;aspect=fixed;fillColor=#bac8d3;strokeColor=#23445d;" vertex="1" parent="1">
          <mxGeometry x="855.6399999999999" y="1290" width="50" height="50" as="geometry" />
        </mxCell>
        <mxCell id="AnZsFcttlPKRZk0aTAW--97" style="edgeStyle=none;rounded=0;orthogonalLoop=1;jettySize=auto;html=1;exitX=1;exitY=1;exitDx=0;exitDy=0;endArrow=none;endFill=0;" edge="1" parent="1" source="AnZsFcttlPKRZk0aTAW--98" target="AnZsFcttlPKRZk0aTAW--103">
          <mxGeometry relative="1" as="geometry" />
        </mxCell>
        <mxCell id="AnZsFcttlPKRZk0aTAW--98" value="R1" style="ellipse;whiteSpace=wrap;html=1;aspect=fixed;fillColor=#bac8d3;strokeColor=#23445d;" vertex="1" parent="1">
          <mxGeometry x="775.6399999999999" y="1370" width="50" height="50" as="geometry" />
        </mxCell>
        <mxCell id="AnZsFcttlPKRZk0aTAW--99" style="edgeStyle=none;rounded=0;orthogonalLoop=1;jettySize=auto;html=1;exitX=0;exitY=1;exitDx=0;exitDy=0;entryX=1;entryY=0;entryDx=0;entryDy=0;endArrow=none;endFill=0;" edge="1" parent="1" source="AnZsFcttlPKRZk0aTAW--101" target="AnZsFcttlPKRZk0aTAW--103">
          <mxGeometry relative="1" as="geometry" />
        </mxCell>
        <mxCell id="AnZsFcttlPKRZk0aTAW--100" style="edgeStyle=none;rounded=0;orthogonalLoop=1;jettySize=auto;html=1;exitX=0;exitY=0.5;exitDx=0;exitDy=0;entryX=1;entryY=0.5;entryDx=0;entryDy=0;endArrow=none;endFill=0;strokeWidth=4;" edge="1" parent="1" source="AnZsFcttlPKRZk0aTAW--101" target="AnZsFcttlPKRZk0aTAW--104">
          <mxGeometry relative="1" as="geometry" />
        </mxCell>
        <mxCell id="AnZsFcttlPKRZk0aTAW--101" value="R3" style="ellipse;whiteSpace=wrap;html=1;aspect=fixed;fillColor=#FFB570;strokeColor=#b46504;dashed=1;" vertex="1" parent="1">
          <mxGeometry x="935.6399999999999" y="1370" width="50" height="50" as="geometry" />
        </mxCell>
        <mxCell id="AnZsFcttlPKRZk0aTAW--102" style="edgeStyle=none;rounded=0;orthogonalLoop=1;jettySize=auto;html=1;exitX=0.5;exitY=0;exitDx=0;exitDy=0;entryX=0.5;entryY=1;entryDx=0;entryDy=0;endArrow=none;endFill=0;" edge="1" parent="1" source="AnZsFcttlPKRZk0aTAW--103" target="AnZsFcttlPKRZk0aTAW--104">
          <mxGeometry relative="1" as="geometry" />
        </mxCell>
        <mxCell id="AnZsFcttlPKRZk0aTAW--103" value="R4" style="ellipse;whiteSpace=wrap;html=1;aspect=fixed;fillColor=#FFB570;strokeColor=#b46504;dashed=1;" vertex="1" parent="1">
          <mxGeometry x="855.6399999999999" y="1450" width="50" height="50" as="geometry" />
        </mxCell>
        <mxCell id="AnZsFcttlPKRZk0aTAW--104" value="R2" style="ellipse;whiteSpace=wrap;html=1;aspect=fixed;fillColor=#fad9d5;strokeColor=#ae4132;" vertex="1" parent="1">
          <mxGeometry x="855.6399999999999" y="1370" width="50" height="50" as="geometry" />
        </mxCell>
        <mxCell id="AnZsFcttlPKRZk0aTAW--130" value="" style="rounded=1;whiteSpace=wrap;html=1;fillColor=#b1ddf0;strokeColor=#10739e;" vertex="1" parent="1">
          <mxGeometry x="810" y="623.75" width="110" height="80" as="geometry" />
        </mxCell>
        <mxCell id="AnZsFcttlPKRZk0aTAW--131" style="rounded=0;orthogonalLoop=1;jettySize=auto;html=1;exitX=0;exitY=1;exitDx=0;exitDy=0;entryX=1;entryY=0;entryDx=0;entryDy=0;endArrow=none;endFill=0;" edge="1" parent="1" source="AnZsFcttlPKRZk0aTAW--134" target="AnZsFcttlPKRZk0aTAW--136">
          <mxGeometry relative="1" as="geometry" />
        </mxCell>
        <mxCell id="AnZsFcttlPKRZk0aTAW--132" style="edgeStyle=none;rounded=0;orthogonalLoop=1;jettySize=auto;html=1;exitX=1;exitY=1;exitDx=0;exitDy=0;entryX=0;entryY=0;entryDx=0;entryDy=0;endArrow=none;endFill=0;" edge="1" parent="1" source="AnZsFcttlPKRZk0aTAW--134" target="AnZsFcttlPKRZk0aTAW--139">
          <mxGeometry relative="1" as="geometry" />
        </mxCell>
        <mxCell id="AnZsFcttlPKRZk0aTAW--133" style="edgeStyle=none;rounded=0;orthogonalLoop=1;jettySize=auto;html=1;exitX=0.5;exitY=1;exitDx=0;exitDy=0;entryX=0.5;entryY=0;entryDx=0;entryDy=0;endArrow=none;endFill=0;" edge="1" parent="1" source="AnZsFcttlPKRZk0aTAW--134" target="AnZsFcttlPKRZk0aTAW--142">
          <mxGeometry relative="1" as="geometry" />
        </mxCell>
        <mxCell id="AnZsFcttlPKRZk0aTAW--134" value="R0" style="ellipse;whiteSpace=wrap;html=1;aspect=fixed;fillColor=#bac8d3;strokeColor=#23445d;" vertex="1" parent="1">
          <mxGeometry x="840" y="478.75" width="50" height="50" as="geometry" />
        </mxCell>
        <mxCell id="AnZsFcttlPKRZk0aTAW--135" style="edgeStyle=none;rounded=0;orthogonalLoop=1;jettySize=auto;html=1;exitX=1;exitY=1;exitDx=0;exitDy=0;endArrow=none;endFill=0;" edge="1" parent="1" source="AnZsFcttlPKRZk0aTAW--136" target="AnZsFcttlPKRZk0aTAW--141">
          <mxGeometry relative="1" as="geometry" />
        </mxCell>
        <mxCell id="AnZsFcttlPKRZk0aTAW--136" value="R1" style="ellipse;whiteSpace=wrap;html=1;aspect=fixed;fillColor=#bac8d3;strokeColor=#23445d;" vertex="1" parent="1">
          <mxGeometry x="760" y="558.75" width="50" height="50" as="geometry" />
        </mxCell>
        <mxCell id="AnZsFcttlPKRZk0aTAW--137" style="edgeStyle=none;rounded=0;orthogonalLoop=1;jettySize=auto;html=1;exitX=0;exitY=1;exitDx=0;exitDy=0;entryX=1;entryY=0;entryDx=0;entryDy=0;endArrow=none;endFill=0;" edge="1" parent="1" source="AnZsFcttlPKRZk0aTAW--139" target="AnZsFcttlPKRZk0aTAW--141">
          <mxGeometry relative="1" as="geometry" />
        </mxCell>
        <mxCell id="AnZsFcttlPKRZk0aTAW--138" style="edgeStyle=none;rounded=0;orthogonalLoop=1;jettySize=auto;html=1;exitX=0;exitY=0.5;exitDx=0;exitDy=0;entryX=1;entryY=0.5;entryDx=0;entryDy=0;endArrow=none;endFill=0;" edge="1" parent="1" source="AnZsFcttlPKRZk0aTAW--139" target="AnZsFcttlPKRZk0aTAW--142">
          <mxGeometry relative="1" as="geometry" />
        </mxCell>
        <mxCell id="AnZsFcttlPKRZk0aTAW--139" value="R3" style="ellipse;whiteSpace=wrap;html=1;aspect=fixed;fillColor=#fad9d5;strokeColor=#ae4132;" vertex="1" parent="1">
          <mxGeometry x="920" y="558.75" width="50" height="50" as="geometry" />
        </mxCell>
        <mxCell id="AnZsFcttlPKRZk0aTAW--140" style="edgeStyle=none;rounded=0;orthogonalLoop=1;jettySize=auto;html=1;exitX=0.5;exitY=0;exitDx=0;exitDy=0;entryX=0.5;entryY=1;entryDx=0;entryDy=0;endArrow=none;endFill=0;" edge="1" parent="1" source="AnZsFcttlPKRZk0aTAW--141" target="AnZsFcttlPKRZk0aTAW--142">
          <mxGeometry relative="1" as="geometry" />
        </mxCell>
        <mxCell id="AnZsFcttlPKRZk0aTAW--141" value="R4" style="ellipse;whiteSpace=wrap;html=1;aspect=fixed;fillColor=#fad9d5;strokeColor=#ae4132;" vertex="1" parent="1">
          <mxGeometry x="840" y="638.75" width="50" height="50" as="geometry" />
        </mxCell>
        <mxCell id="AnZsFcttlPKRZk0aTAW--142" value="R2" style="ellipse;whiteSpace=wrap;html=1;aspect=fixed;fillColor=#bac8d3;strokeColor=#23445d;" vertex="1" parent="1">
          <mxGeometry x="840" y="558.75" width="50" height="50" as="geometry" />
        </mxCell>
        <mxCell id="AnZsFcttlPKRZk0aTAW--156" value="" style="rounded=1;whiteSpace=wrap;html=1;fillColor=#b1ddf0;strokeColor=#10739e;rotation=-45;" vertex="1" parent="1">
          <mxGeometry x="1060" y="1425" width="180" height="64.75" as="geometry" />
        </mxCell>
        <mxCell id="AnZsFcttlPKRZk0aTAW--157" style="rounded=0;orthogonalLoop=1;jettySize=auto;html=1;exitX=0;exitY=1;exitDx=0;exitDy=0;entryX=1;entryY=0;entryDx=0;entryDy=0;endArrow=none;endFill=0;" edge="1" parent="1" source="AnZsFcttlPKRZk0aTAW--160" target="AnZsFcttlPKRZk0aTAW--162">
          <mxGeometry relative="1" as="geometry" />
        </mxCell>
        <mxCell id="AnZsFcttlPKRZk0aTAW--158" style="edgeStyle=none;rounded=0;orthogonalLoop=1;jettySize=auto;html=1;exitX=1;exitY=1;exitDx=0;exitDy=0;entryX=0;entryY=0;entryDx=0;entryDy=0;endArrow=none;endFill=0;" edge="1" parent="1" source="AnZsFcttlPKRZk0aTAW--160" target="AnZsFcttlPKRZk0aTAW--165">
          <mxGeometry relative="1" as="geometry" />
        </mxCell>
        <mxCell id="AnZsFcttlPKRZk0aTAW--159" style="edgeStyle=none;rounded=0;orthogonalLoop=1;jettySize=auto;html=1;exitX=0.5;exitY=1;exitDx=0;exitDy=0;entryX=0.5;entryY=0;entryDx=0;entryDy=0;endArrow=none;endFill=0;" edge="1" parent="1" source="AnZsFcttlPKRZk0aTAW--160" target="AnZsFcttlPKRZk0aTAW--168">
          <mxGeometry relative="1" as="geometry" />
        </mxCell>
        <mxCell id="AnZsFcttlPKRZk0aTAW--160" value="R0" style="ellipse;whiteSpace=wrap;html=1;aspect=fixed;fillColor=#bac8d3;strokeColor=#23445d;" vertex="1" parent="1">
          <mxGeometry x="1090" y="1305" width="50" height="50" as="geometry" />
        </mxCell>
        <mxCell id="AnZsFcttlPKRZk0aTAW--161" style="edgeStyle=none;rounded=0;orthogonalLoop=1;jettySize=auto;html=1;exitX=1;exitY=1;exitDx=0;exitDy=0;endArrow=none;endFill=0;" edge="1" parent="1" source="AnZsFcttlPKRZk0aTAW--162" target="AnZsFcttlPKRZk0aTAW--167">
          <mxGeometry relative="1" as="geometry" />
        </mxCell>
        <mxCell id="AnZsFcttlPKRZk0aTAW--162" value="R1" style="ellipse;whiteSpace=wrap;html=1;aspect=fixed;fillColor=#bac8d3;strokeColor=#23445d;" vertex="1" parent="1">
          <mxGeometry x="1010" y="1385" width="50" height="50" as="geometry" />
        </mxCell>
        <mxCell id="AnZsFcttlPKRZk0aTAW--163" style="edgeStyle=none;rounded=0;orthogonalLoop=1;jettySize=auto;html=1;exitX=0;exitY=1;exitDx=0;exitDy=0;entryX=1;entryY=0;entryDx=0;entryDy=0;endArrow=none;endFill=0;strokeWidth=1;" edge="1" parent="1" source="AnZsFcttlPKRZk0aTAW--165" target="AnZsFcttlPKRZk0aTAW--167">
          <mxGeometry relative="1" as="geometry" />
        </mxCell>
        <mxCell id="AnZsFcttlPKRZk0aTAW--164" style="edgeStyle=none;rounded=0;orthogonalLoop=1;jettySize=auto;html=1;exitX=0;exitY=0.5;exitDx=0;exitDy=0;entryX=1;entryY=0.5;entryDx=0;entryDy=0;endArrow=none;endFill=0;strokeWidth=1;" edge="1" parent="1" source="AnZsFcttlPKRZk0aTAW--165" target="AnZsFcttlPKRZk0aTAW--168">
          <mxGeometry relative="1" as="geometry" />
        </mxCell>
        <mxCell id="AnZsFcttlPKRZk0aTAW--165" value="R3" style="ellipse;whiteSpace=wrap;html=1;aspect=fixed;fillColor=#fad9d5;strokeColor=#ae4132;" vertex="1" parent="1">
          <mxGeometry x="1170" y="1385" width="50" height="50" as="geometry" />
        </mxCell>
        <mxCell id="AnZsFcttlPKRZk0aTAW--166" style="edgeStyle=none;rounded=0;orthogonalLoop=1;jettySize=auto;html=1;exitX=0.5;exitY=0;exitDx=0;exitDy=0;entryX=0.5;entryY=1;entryDx=0;entryDy=0;endArrow=none;endFill=0;" edge="1" parent="1" source="AnZsFcttlPKRZk0aTAW--167" target="AnZsFcttlPKRZk0aTAW--168">
          <mxGeometry relative="1" as="geometry" />
        </mxCell>
        <mxCell id="AnZsFcttlPKRZk0aTAW--167" value="R4" style="ellipse;whiteSpace=wrap;html=1;aspect=fixed;fillColor=#fad9d5;strokeColor=#ae4132;" vertex="1" parent="1">
          <mxGeometry x="1090" y="1465" width="50" height="50" as="geometry" />
        </mxCell>
        <mxCell id="AnZsFcttlPKRZk0aTAW--168" value="R2" style="ellipse;whiteSpace=wrap;html=1;aspect=fixed;fillColor=#fad9d5;strokeColor=#ae4132;" vertex="1" parent="1">
          <mxGeometry x="1090" y="1385" width="50" height="50" as="geometry" />
        </mxCell>
        <mxCell id="AnZsFcttlPKRZk0aTAW--181" value="" style="rounded=1;whiteSpace=wrap;html=1;fillColor=#b1ddf0;strokeColor=#10739e;rotation=-45;" vertex="1" parent="1">
          <mxGeometry x="824.36" y="1649.98" width="180" height="64.75" as="geometry" />
        </mxCell>
        <mxCell id="AnZsFcttlPKRZk0aTAW--182" style="rounded=0;orthogonalLoop=1;jettySize=auto;html=1;exitX=0;exitY=1;exitDx=0;exitDy=0;entryX=1;entryY=0;entryDx=0;entryDy=0;endArrow=none;endFill=0;" edge="1" parent="1" source="AnZsFcttlPKRZk0aTAW--185" target="AnZsFcttlPKRZk0aTAW--187">
          <mxGeometry relative="1" as="geometry" />
        </mxCell>
        <mxCell id="AnZsFcttlPKRZk0aTAW--183" style="edgeStyle=none;rounded=0;orthogonalLoop=1;jettySize=auto;html=1;exitX=1;exitY=1;exitDx=0;exitDy=0;entryX=0;entryY=0;entryDx=0;entryDy=0;endArrow=none;endFill=0;" edge="1" parent="1" source="AnZsFcttlPKRZk0aTAW--185" target="AnZsFcttlPKRZk0aTAW--190">
          <mxGeometry relative="1" as="geometry" />
        </mxCell>
        <mxCell id="AnZsFcttlPKRZk0aTAW--184" style="edgeStyle=none;rounded=0;orthogonalLoop=1;jettySize=auto;html=1;exitX=0.5;exitY=1;exitDx=0;exitDy=0;entryX=0.5;entryY=0;entryDx=0;entryDy=0;endArrow=none;endFill=0;" edge="1" parent="1" source="AnZsFcttlPKRZk0aTAW--185" target="AnZsFcttlPKRZk0aTAW--193">
          <mxGeometry relative="1" as="geometry" />
        </mxCell>
        <mxCell id="AnZsFcttlPKRZk0aTAW--185" value="R0" style="ellipse;whiteSpace=wrap;html=1;aspect=fixed;fillColor=#bac8d3;strokeColor=#23445d;" vertex="1" parent="1">
          <mxGeometry x="849.9999999999999" y="1535" width="50" height="50" as="geometry" />
        </mxCell>
        <mxCell id="AnZsFcttlPKRZk0aTAW--186" style="edgeStyle=none;rounded=0;orthogonalLoop=1;jettySize=auto;html=1;exitX=1;exitY=1;exitDx=0;exitDy=0;endArrow=none;endFill=0;" edge="1" parent="1" source="AnZsFcttlPKRZk0aTAW--187" target="AnZsFcttlPKRZk0aTAW--192">
          <mxGeometry relative="1" as="geometry" />
        </mxCell>
        <mxCell id="AnZsFcttlPKRZk0aTAW--187" value="R1" style="ellipse;whiteSpace=wrap;html=1;aspect=fixed;fillColor=#bac8d3;strokeColor=#23445d;" vertex="1" parent="1">
          <mxGeometry x="769.9999999999999" y="1615" width="50" height="50" as="geometry" />
        </mxCell>
        <mxCell id="AnZsFcttlPKRZk0aTAW--188" style="edgeStyle=none;rounded=0;orthogonalLoop=1;jettySize=auto;html=1;exitX=0;exitY=1;exitDx=0;exitDy=0;entryX=1;entryY=0;entryDx=0;entryDy=0;endArrow=none;endFill=0;" edge="1" parent="1" source="AnZsFcttlPKRZk0aTAW--190" target="AnZsFcttlPKRZk0aTAW--192">
          <mxGeometry relative="1" as="geometry" />
        </mxCell>
        <mxCell id="AnZsFcttlPKRZk0aTAW--189" style="edgeStyle=none;rounded=0;orthogonalLoop=1;jettySize=auto;html=1;exitX=0;exitY=0.5;exitDx=0;exitDy=0;entryX=1;entryY=0.5;entryDx=0;entryDy=0;endArrow=none;endFill=0;strokeWidth=1;" edge="1" parent="1" source="AnZsFcttlPKRZk0aTAW--190" target="AnZsFcttlPKRZk0aTAW--193">
          <mxGeometry relative="1" as="geometry" />
        </mxCell>
        <mxCell id="AnZsFcttlPKRZk0aTAW--190" value="R3" style="ellipse;whiteSpace=wrap;html=1;aspect=fixed;fillColor=#bac8d3;strokeColor=#23445d;" vertex="1" parent="1">
          <mxGeometry x="929.9999999999999" y="1615" width="50" height="50" as="geometry" />
        </mxCell>
        <mxCell id="AnZsFcttlPKRZk0aTAW--191" style="edgeStyle=none;rounded=0;orthogonalLoop=1;jettySize=auto;html=1;exitX=0.5;exitY=0;exitDx=0;exitDy=0;entryX=0.5;entryY=1;entryDx=0;entryDy=0;endArrow=none;endFill=0;strokeWidth=4;" edge="1" parent="1" source="AnZsFcttlPKRZk0aTAW--192" target="AnZsFcttlPKRZk0aTAW--193">
          <mxGeometry relative="1" as="geometry" />
        </mxCell>
        <mxCell id="AnZsFcttlPKRZk0aTAW--192" value="R4" style="ellipse;whiteSpace=wrap;html=1;aspect=fixed;fillColor=#FFB570;strokeColor=#b46504;dashed=1;" vertex="1" parent="1">
          <mxGeometry x="849.9999999999999" y="1695" width="50" height="50" as="geometry" />
        </mxCell>
        <mxCell id="AnZsFcttlPKRZk0aTAW--193" value="R2" style="ellipse;whiteSpace=wrap;html=1;aspect=fixed;fillColor=#fad9d5;strokeColor=#ae4132;" vertex="1" parent="1">
          <mxGeometry x="849.9999999999999" y="1615" width="50" height="50" as="geometry" />
        </mxCell>
        <mxCell id="AnZsFcttlPKRZk0aTAW--194" value="" style="rounded=1;whiteSpace=wrap;html=1;fillColor=#b1ddf0;strokeColor=#10739e;rotation=-45;" vertex="1" parent="1">
          <mxGeometry x="1064.3600000000001" y="1659.98" width="180" height="64.75" as="geometry" />
        </mxCell>
        <mxCell id="AnZsFcttlPKRZk0aTAW--195" style="rounded=0;orthogonalLoop=1;jettySize=auto;html=1;exitX=0;exitY=1;exitDx=0;exitDy=0;entryX=1;entryY=0;entryDx=0;entryDy=0;endArrow=none;endFill=0;" edge="1" parent="1" source="AnZsFcttlPKRZk0aTAW--198" target="AnZsFcttlPKRZk0aTAW--200">
          <mxGeometry relative="1" as="geometry" />
        </mxCell>
        <mxCell id="AnZsFcttlPKRZk0aTAW--196" style="edgeStyle=none;rounded=0;orthogonalLoop=1;jettySize=auto;html=1;exitX=1;exitY=1;exitDx=0;exitDy=0;entryX=0;entryY=0;entryDx=0;entryDy=0;endArrow=none;endFill=0;" edge="1" parent="1" source="AnZsFcttlPKRZk0aTAW--198" target="AnZsFcttlPKRZk0aTAW--203">
          <mxGeometry relative="1" as="geometry" />
        </mxCell>
        <mxCell id="AnZsFcttlPKRZk0aTAW--197" style="edgeStyle=none;rounded=0;orthogonalLoop=1;jettySize=auto;html=1;exitX=0.5;exitY=1;exitDx=0;exitDy=0;entryX=0.5;entryY=0;entryDx=0;entryDy=0;endArrow=none;endFill=0;" edge="1" parent="1" source="AnZsFcttlPKRZk0aTAW--198" target="AnZsFcttlPKRZk0aTAW--206">
          <mxGeometry relative="1" as="geometry" />
        </mxCell>
        <mxCell id="AnZsFcttlPKRZk0aTAW--198" value="R0" style="ellipse;whiteSpace=wrap;html=1;aspect=fixed;fillColor=#bac8d3;strokeColor=#23445d;" vertex="1" parent="1">
          <mxGeometry x="1090" y="1545" width="50" height="50" as="geometry" />
        </mxCell>
        <mxCell id="AnZsFcttlPKRZk0aTAW--199" style="edgeStyle=none;rounded=0;orthogonalLoop=1;jettySize=auto;html=1;exitX=1;exitY=1;exitDx=0;exitDy=0;endArrow=none;endFill=0;" edge="1" parent="1" source="AnZsFcttlPKRZk0aTAW--200" target="AnZsFcttlPKRZk0aTAW--205">
          <mxGeometry relative="1" as="geometry" />
        </mxCell>
        <mxCell id="AnZsFcttlPKRZk0aTAW--200" value="R1" style="ellipse;whiteSpace=wrap;html=1;aspect=fixed;fillColor=#bac8d3;strokeColor=#23445d;" vertex="1" parent="1">
          <mxGeometry x="1009.9999999999999" y="1625" width="50" height="50" as="geometry" />
        </mxCell>
        <mxCell id="AnZsFcttlPKRZk0aTAW--201" style="edgeStyle=none;rounded=0;orthogonalLoop=1;jettySize=auto;html=1;exitX=0;exitY=1;exitDx=0;exitDy=0;entryX=1;entryY=0;entryDx=0;entryDy=0;endArrow=none;endFill=0;strokeWidth=4;" edge="1" parent="1" source="AnZsFcttlPKRZk0aTAW--203" target="AnZsFcttlPKRZk0aTAW--205">
          <mxGeometry relative="1" as="geometry" />
        </mxCell>
        <mxCell id="AnZsFcttlPKRZk0aTAW--202" style="edgeStyle=none;rounded=0;orthogonalLoop=1;jettySize=auto;html=1;exitX=0;exitY=0.5;exitDx=0;exitDy=0;entryX=1;entryY=0.5;entryDx=0;entryDy=0;endArrow=none;endFill=0;strokeWidth=1;" edge="1" parent="1" source="AnZsFcttlPKRZk0aTAW--203" target="AnZsFcttlPKRZk0aTAW--206">
          <mxGeometry relative="1" as="geometry" />
        </mxCell>
        <mxCell id="AnZsFcttlPKRZk0aTAW--203" value="R3" style="ellipse;whiteSpace=wrap;html=1;aspect=fixed;fillColor=#bac8d3;strokeColor=#23445d;" vertex="1" parent="1">
          <mxGeometry x="1170" y="1625" width="50" height="50" as="geometry" />
        </mxCell>
        <mxCell id="AnZsFcttlPKRZk0aTAW--204" style="edgeStyle=none;rounded=0;orthogonalLoop=1;jettySize=auto;html=1;exitX=0.5;exitY=0;exitDx=0;exitDy=0;entryX=0.5;entryY=1;entryDx=0;entryDy=0;endArrow=none;endFill=0;" edge="1" parent="1" source="AnZsFcttlPKRZk0aTAW--205" target="AnZsFcttlPKRZk0aTAW--206">
          <mxGeometry relative="1" as="geometry" />
        </mxCell>
        <mxCell id="AnZsFcttlPKRZk0aTAW--205" value="R4" style="ellipse;whiteSpace=wrap;html=1;aspect=fixed;fillColor=#fad9d5;strokeColor=#ae4132;" vertex="1" parent="1">
          <mxGeometry x="1090" y="1705" width="50" height="50" as="geometry" />
        </mxCell>
        <mxCell id="AnZsFcttlPKRZk0aTAW--206" value="R2" style="ellipse;whiteSpace=wrap;html=1;aspect=fixed;fillColor=#fad9d5;strokeColor=#ae4132;" vertex="1" parent="1">
          <mxGeometry x="1090" y="1625" width="50" height="50" as="geometry" />
        </mxCell>
        <mxCell id="AnZsFcttlPKRZk0aTAW--207" value="" style="group" vertex="1" connectable="0" parent="1">
          <mxGeometry x="40" y="1080" width="230.89219234770383" height="228.9071923477038" as="geometry" />
        </mxCell>
        <mxCell id="AnZsFcttlPKRZk0aTAW--79" value="" style="rounded=1;whiteSpace=wrap;html=1;fillColor=#b1ddf0;strokeColor=#10739e;rotation=-45;" vertex="1" parent="AnZsFcttlPKRZk0aTAW--207">
          <mxGeometry x="54.36000000000013" y="110" width="180" height="64.75" as="geometry" />
        </mxCell>
        <mxCell id="AnZsFcttlPKRZk0aTAW--83" value="R0" style="ellipse;whiteSpace=wrap;html=1;aspect=fixed;fillColor=#bac8d3;strokeColor=#23445d;" vertex="1" parent="AnZsFcttlPKRZk0aTAW--207">
          <mxGeometry x="80" width="50" height="50" as="geometry" />
        </mxCell>
        <mxCell id="AnZsFcttlPKRZk0aTAW--85" value="R1" style="ellipse;whiteSpace=wrap;html=1;aspect=fixed;fillColor=#bac8d3;strokeColor=#23445d;" vertex="1" parent="AnZsFcttlPKRZk0aTAW--207">
          <mxGeometry y="80" width="50" height="50" as="geometry" />
        </mxCell>
        <mxCell id="AnZsFcttlPKRZk0aTAW--80" style="rounded=0;orthogonalLoop=1;jettySize=auto;html=1;exitX=0;exitY=1;exitDx=0;exitDy=0;entryX=1;entryY=0;entryDx=0;entryDy=0;endArrow=none;endFill=0;" edge="1" parent="AnZsFcttlPKRZk0aTAW--207" source="AnZsFcttlPKRZk0aTAW--83" target="AnZsFcttlPKRZk0aTAW--85">
          <mxGeometry relative="1" as="geometry" />
        </mxCell>
        <mxCell id="AnZsFcttlPKRZk0aTAW--88" value="R3" style="ellipse;whiteSpace=wrap;html=1;aspect=fixed;fillColor=#bac8d3;strokeColor=#23445d;dashed=1;" vertex="1" parent="AnZsFcttlPKRZk0aTAW--207">
          <mxGeometry x="160" y="80" width="50" height="50" as="geometry" />
        </mxCell>
        <mxCell id="AnZsFcttlPKRZk0aTAW--81" style="edgeStyle=none;rounded=0;orthogonalLoop=1;jettySize=auto;html=1;exitX=1;exitY=1;exitDx=0;exitDy=0;entryX=0;entryY=0;entryDx=0;entryDy=0;endArrow=none;endFill=0;" edge="1" parent="AnZsFcttlPKRZk0aTAW--207" source="AnZsFcttlPKRZk0aTAW--83" target="AnZsFcttlPKRZk0aTAW--88">
          <mxGeometry relative="1" as="geometry" />
        </mxCell>
        <mxCell id="AnZsFcttlPKRZk0aTAW--90" value="R4" style="ellipse;whiteSpace=wrap;html=1;aspect=fixed;fillColor=#FFB570;strokeColor=#b46504;" vertex="1" parent="AnZsFcttlPKRZk0aTAW--207">
          <mxGeometry x="80" y="160" width="50" height="50" as="geometry" />
        </mxCell>
        <mxCell id="AnZsFcttlPKRZk0aTAW--84" style="edgeStyle=none;rounded=0;orthogonalLoop=1;jettySize=auto;html=1;exitX=1;exitY=1;exitDx=0;exitDy=0;endArrow=none;endFill=0;" edge="1" parent="AnZsFcttlPKRZk0aTAW--207" source="AnZsFcttlPKRZk0aTAW--85" target="AnZsFcttlPKRZk0aTAW--90">
          <mxGeometry relative="1" as="geometry" />
        </mxCell>
        <mxCell id="AnZsFcttlPKRZk0aTAW--86" style="edgeStyle=none;rounded=0;orthogonalLoop=1;jettySize=auto;html=1;exitX=0;exitY=1;exitDx=0;exitDy=0;entryX=1;entryY=0;entryDx=0;entryDy=0;endArrow=none;endFill=0;" edge="1" parent="AnZsFcttlPKRZk0aTAW--207" source="AnZsFcttlPKRZk0aTAW--88" target="AnZsFcttlPKRZk0aTAW--90">
          <mxGeometry relative="1" as="geometry" />
        </mxCell>
        <mxCell id="AnZsFcttlPKRZk0aTAW--91" value="R2" style="ellipse;whiteSpace=wrap;html=1;aspect=fixed;fillColor=#fad9d5;strokeColor=#ae4132;" vertex="1" parent="AnZsFcttlPKRZk0aTAW--207">
          <mxGeometry x="80" y="80" width="50" height="50" as="geometry" />
        </mxCell>
        <mxCell id="AnZsFcttlPKRZk0aTAW--82" style="edgeStyle=none;rounded=0;orthogonalLoop=1;jettySize=auto;html=1;exitX=0.5;exitY=1;exitDx=0;exitDy=0;entryX=0.5;entryY=0;entryDx=0;entryDy=0;endArrow=none;endFill=0;" edge="1" parent="AnZsFcttlPKRZk0aTAW--207" source="AnZsFcttlPKRZk0aTAW--83" target="AnZsFcttlPKRZk0aTAW--91">
          <mxGeometry relative="1" as="geometry" />
        </mxCell>
        <mxCell id="AnZsFcttlPKRZk0aTAW--87" style="edgeStyle=none;rounded=0;orthogonalLoop=1;jettySize=auto;html=1;exitX=0;exitY=0.5;exitDx=0;exitDy=0;entryX=1;entryY=0.5;entryDx=0;entryDy=0;endArrow=none;endFill=0;strokeWidth=1;" edge="1" parent="AnZsFcttlPKRZk0aTAW--207" source="AnZsFcttlPKRZk0aTAW--88" target="AnZsFcttlPKRZk0aTAW--91">
          <mxGeometry relative="1" as="geometry" />
        </mxCell>
        <mxCell id="AnZsFcttlPKRZk0aTAW--89" style="edgeStyle=none;rounded=0;orthogonalLoop=1;jettySize=auto;html=1;exitX=0.5;exitY=0;exitDx=0;exitDy=0;entryX=0.5;entryY=1;entryDx=0;entryDy=0;endArrow=none;endFill=0;strokeWidth=4;" edge="1" parent="AnZsFcttlPKRZk0aTAW--207" source="AnZsFcttlPKRZk0aTAW--90" target="AnZsFcttlPKRZk0aTAW--91">
          <mxGeometry relative="1" as="geometry" />
        </mxCell>
        <mxCell id="AnZsFcttlPKRZk0aTAW--220" value="" style="group" vertex="1" connectable="0" parent="1">
          <mxGeometry x="280" y="1070" width="230.89219234770383" height="228.9071923477038" as="geometry" />
        </mxCell>
        <mxCell id="AnZsFcttlPKRZk0aTAW--221" value="" style="rounded=1;whiteSpace=wrap;html=1;fillColor=#b1ddf0;strokeColor=#10739e;rotation=-45;" vertex="1" parent="AnZsFcttlPKRZk0aTAW--220">
          <mxGeometry x="54.36000000000013" y="110" width="180" height="64.75" as="geometry" />
        </mxCell>
        <mxCell id="AnZsFcttlPKRZk0aTAW--222" value="R0" style="ellipse;whiteSpace=wrap;html=1;aspect=fixed;fillColor=#bac8d3;strokeColor=#23445d;" vertex="1" parent="AnZsFcttlPKRZk0aTAW--220">
          <mxGeometry x="80" width="50" height="50" as="geometry" />
        </mxCell>
        <mxCell id="AnZsFcttlPKRZk0aTAW--223" value="R1" style="ellipse;whiteSpace=wrap;html=1;aspect=fixed;fillColor=#bac8d3;strokeColor=#23445d;" vertex="1" parent="AnZsFcttlPKRZk0aTAW--220">
          <mxGeometry y="80" width="50" height="50" as="geometry" />
        </mxCell>
        <mxCell id="AnZsFcttlPKRZk0aTAW--224" style="rounded=0;orthogonalLoop=1;jettySize=auto;html=1;exitX=0;exitY=1;exitDx=0;exitDy=0;entryX=1;entryY=0;entryDx=0;entryDy=0;endArrow=none;endFill=0;" edge="1" parent="AnZsFcttlPKRZk0aTAW--220" source="AnZsFcttlPKRZk0aTAW--222" target="AnZsFcttlPKRZk0aTAW--223">
          <mxGeometry relative="1" as="geometry" />
        </mxCell>
        <mxCell id="AnZsFcttlPKRZk0aTAW--225" value="R3" style="ellipse;whiteSpace=wrap;html=1;aspect=fixed;fillColor=#FFB570;strokeColor=#23445d;" vertex="1" parent="AnZsFcttlPKRZk0aTAW--220">
          <mxGeometry x="160" y="80" width="50" height="50" as="geometry" />
        </mxCell>
        <mxCell id="AnZsFcttlPKRZk0aTAW--226" style="edgeStyle=none;rounded=0;orthogonalLoop=1;jettySize=auto;html=1;exitX=1;exitY=1;exitDx=0;exitDy=0;entryX=0;entryY=0;entryDx=0;entryDy=0;endArrow=none;endFill=0;" edge="1" parent="AnZsFcttlPKRZk0aTAW--220" source="AnZsFcttlPKRZk0aTAW--222" target="AnZsFcttlPKRZk0aTAW--225">
          <mxGeometry relative="1" as="geometry" />
        </mxCell>
        <mxCell id="AnZsFcttlPKRZk0aTAW--227" value="R4" style="ellipse;whiteSpace=wrap;html=1;aspect=fixed;fillColor=#fad7ac;strokeColor=#b46504;" vertex="1" parent="AnZsFcttlPKRZk0aTAW--220">
          <mxGeometry x="80" y="160" width="50" height="50" as="geometry" />
        </mxCell>
        <mxCell id="AnZsFcttlPKRZk0aTAW--228" style="edgeStyle=none;rounded=0;orthogonalLoop=1;jettySize=auto;html=1;exitX=1;exitY=1;exitDx=0;exitDy=0;endArrow=none;endFill=0;" edge="1" parent="AnZsFcttlPKRZk0aTAW--220" source="AnZsFcttlPKRZk0aTAW--223" target="AnZsFcttlPKRZk0aTAW--227">
          <mxGeometry relative="1" as="geometry" />
        </mxCell>
        <mxCell id="AnZsFcttlPKRZk0aTAW--229" style="edgeStyle=none;rounded=0;orthogonalLoop=1;jettySize=auto;html=1;exitX=0;exitY=1;exitDx=0;exitDy=0;entryX=1;entryY=0;entryDx=0;entryDy=0;endArrow=none;endFill=0;" edge="1" parent="AnZsFcttlPKRZk0aTAW--220" source="AnZsFcttlPKRZk0aTAW--225" target="AnZsFcttlPKRZk0aTAW--227">
          <mxGeometry relative="1" as="geometry" />
        </mxCell>
        <mxCell id="AnZsFcttlPKRZk0aTAW--230" value="R2" style="ellipse;whiteSpace=wrap;html=1;aspect=fixed;fillColor=#fad9d5;strokeColor=#ae4132;" vertex="1" parent="AnZsFcttlPKRZk0aTAW--220">
          <mxGeometry x="80" y="80" width="50" height="50" as="geometry" />
        </mxCell>
        <mxCell id="AnZsFcttlPKRZk0aTAW--231" style="edgeStyle=none;rounded=0;orthogonalLoop=1;jettySize=auto;html=1;exitX=0.5;exitY=1;exitDx=0;exitDy=0;entryX=0.5;entryY=0;entryDx=0;entryDy=0;endArrow=none;endFill=0;" edge="1" parent="AnZsFcttlPKRZk0aTAW--220" source="AnZsFcttlPKRZk0aTAW--222" target="AnZsFcttlPKRZk0aTAW--230">
          <mxGeometry relative="1" as="geometry" />
        </mxCell>
        <mxCell id="AnZsFcttlPKRZk0aTAW--232" style="edgeStyle=none;rounded=0;orthogonalLoop=1;jettySize=auto;html=1;exitX=0;exitY=0.5;exitDx=0;exitDy=0;entryX=1;entryY=0.5;entryDx=0;entryDy=0;endArrow=none;endFill=0;strokeWidth=1;" edge="1" parent="AnZsFcttlPKRZk0aTAW--220" source="AnZsFcttlPKRZk0aTAW--225" target="AnZsFcttlPKRZk0aTAW--230">
          <mxGeometry relative="1" as="geometry" />
        </mxCell>
        <mxCell id="AnZsFcttlPKRZk0aTAW--233" style="edgeStyle=none;rounded=0;orthogonalLoop=1;jettySize=auto;html=1;exitX=0.5;exitY=0;exitDx=0;exitDy=0;entryX=0.5;entryY=1;entryDx=0;entryDy=0;endArrow=none;endFill=0;strokeWidth=4;" edge="1" parent="AnZsFcttlPKRZk0aTAW--220" source="AnZsFcttlPKRZk0aTAW--227" target="AnZsFcttlPKRZk0aTAW--230">
          <mxGeometry relative="1" as="geometry" />
        </mxCell>
        <mxCell id="AnZsFcttlPKRZk0aTAW--234" value="" style="group" vertex="1" connectable="0" parent="1">
          <mxGeometry x="530" y="1070" width="230.89219234770383" height="228.9071923477038" as="geometry" />
        </mxCell>
        <mxCell id="AnZsFcttlPKRZk0aTAW--235" value="" style="rounded=1;whiteSpace=wrap;html=1;fillColor=#b1ddf0;strokeColor=#10739e;rotation=-45;" vertex="1" parent="AnZsFcttlPKRZk0aTAW--234">
          <mxGeometry x="54.36000000000013" y="110" width="180" height="64.75" as="geometry" />
        </mxCell>
        <mxCell id="AnZsFcttlPKRZk0aTAW--236" value="R0" style="ellipse;whiteSpace=wrap;html=1;aspect=fixed;fillColor=#bac8d3;strokeColor=#23445d;" vertex="1" parent="AnZsFcttlPKRZk0aTAW--234">
          <mxGeometry x="80" width="50" height="50" as="geometry" />
        </mxCell>
        <mxCell id="AnZsFcttlPKRZk0aTAW--237" value="R1" style="ellipse;whiteSpace=wrap;html=1;aspect=fixed;fillColor=#bac8d3;strokeColor=#23445d;" vertex="1" parent="AnZsFcttlPKRZk0aTAW--234">
          <mxGeometry y="80" width="50" height="50" as="geometry" />
        </mxCell>
        <mxCell id="AnZsFcttlPKRZk0aTAW--238" style="rounded=0;orthogonalLoop=1;jettySize=auto;html=1;exitX=0;exitY=1;exitDx=0;exitDy=0;entryX=1;entryY=0;entryDx=0;entryDy=0;endArrow=none;endFill=0;" edge="1" parent="AnZsFcttlPKRZk0aTAW--234" source="AnZsFcttlPKRZk0aTAW--236" target="AnZsFcttlPKRZk0aTAW--237">
          <mxGeometry relative="1" as="geometry" />
        </mxCell>
        <mxCell id="AnZsFcttlPKRZk0aTAW--239" value="R3" style="ellipse;whiteSpace=wrap;html=1;aspect=fixed;fillColor=#FFB570;strokeColor=#23445d;" vertex="1" parent="AnZsFcttlPKRZk0aTAW--234">
          <mxGeometry x="160" y="80" width="50" height="50" as="geometry" />
        </mxCell>
        <mxCell id="AnZsFcttlPKRZk0aTAW--240" style="edgeStyle=none;rounded=0;orthogonalLoop=1;jettySize=auto;html=1;exitX=1;exitY=1;exitDx=0;exitDy=0;entryX=0;entryY=0;entryDx=0;entryDy=0;endArrow=none;endFill=0;" edge="1" parent="AnZsFcttlPKRZk0aTAW--234" source="AnZsFcttlPKRZk0aTAW--236" target="AnZsFcttlPKRZk0aTAW--239">
          <mxGeometry relative="1" as="geometry" />
        </mxCell>
        <mxCell id="AnZsFcttlPKRZk0aTAW--241" value="R4" style="ellipse;whiteSpace=wrap;html=1;aspect=fixed;fillColor=#FFB570;strokeColor=#b46504;" vertex="1" parent="AnZsFcttlPKRZk0aTAW--234">
          <mxGeometry x="80" y="160" width="50" height="50" as="geometry" />
        </mxCell>
        <mxCell id="AnZsFcttlPKRZk0aTAW--242" style="edgeStyle=none;rounded=0;orthogonalLoop=1;jettySize=auto;html=1;exitX=1;exitY=1;exitDx=0;exitDy=0;endArrow=none;endFill=0;" edge="1" parent="AnZsFcttlPKRZk0aTAW--234" source="AnZsFcttlPKRZk0aTAW--237" target="AnZsFcttlPKRZk0aTAW--241">
          <mxGeometry relative="1" as="geometry" />
        </mxCell>
        <mxCell id="AnZsFcttlPKRZk0aTAW--243" style="edgeStyle=none;rounded=0;orthogonalLoop=1;jettySize=auto;html=1;exitX=0;exitY=1;exitDx=0;exitDy=0;entryX=1;entryY=0;entryDx=0;entryDy=0;endArrow=none;endFill=0;" edge="1" parent="AnZsFcttlPKRZk0aTAW--234" source="AnZsFcttlPKRZk0aTAW--239" target="AnZsFcttlPKRZk0aTAW--241">
          <mxGeometry relative="1" as="geometry" />
        </mxCell>
        <mxCell id="AnZsFcttlPKRZk0aTAW--244" value="R2" style="ellipse;whiteSpace=wrap;html=1;aspect=fixed;fillColor=#fad9d5;strokeColor=#ae4132;" vertex="1" parent="AnZsFcttlPKRZk0aTAW--234">
          <mxGeometry x="80" y="80" width="50" height="50" as="geometry" />
        </mxCell>
        <mxCell id="AnZsFcttlPKRZk0aTAW--245" style="edgeStyle=none;rounded=0;orthogonalLoop=1;jettySize=auto;html=1;exitX=0.5;exitY=1;exitDx=0;exitDy=0;entryX=0.5;entryY=0;entryDx=0;entryDy=0;endArrow=none;endFill=0;" edge="1" parent="AnZsFcttlPKRZk0aTAW--234" source="AnZsFcttlPKRZk0aTAW--236" target="AnZsFcttlPKRZk0aTAW--244">
          <mxGeometry relative="1" as="geometry" />
        </mxCell>
        <mxCell id="AnZsFcttlPKRZk0aTAW--246" style="edgeStyle=none;rounded=0;orthogonalLoop=1;jettySize=auto;html=1;exitX=0;exitY=0.5;exitDx=0;exitDy=0;entryX=1;entryY=0.5;entryDx=0;entryDy=0;endArrow=none;endFill=0;strokeWidth=1;" edge="1" parent="AnZsFcttlPKRZk0aTAW--234" source="AnZsFcttlPKRZk0aTAW--239" target="AnZsFcttlPKRZk0aTAW--244">
          <mxGeometry relative="1" as="geometry" />
        </mxCell>
        <mxCell id="AnZsFcttlPKRZk0aTAW--247" style="edgeStyle=none;rounded=0;orthogonalLoop=1;jettySize=auto;html=1;exitX=0.5;exitY=0;exitDx=0;exitDy=0;entryX=0.5;entryY=1;entryDx=0;entryDy=0;endArrow=none;endFill=0;strokeWidth=4;" edge="1" parent="AnZsFcttlPKRZk0aTAW--234" source="AnZsFcttlPKRZk0aTAW--241" target="AnZsFcttlPKRZk0aTAW--244">
          <mxGeometry relative="1" as="geometry" />
        </mxCell>
      </root>
    </mxGraphModel>
  </diagram>
</mxfile>
